<?xml version="1.0" standalone="no"?>
<!DOCTYPE svg PUBLIC "-//W3C//DTD SVG 20010904//EN"
 "http://www.w3.org/TR/2001/REC-SVG-20010904/DTD/svg10.dtd">
<svg version="1.0" xmlns="http://www.w3.org/2000/svg"
 width="512.000000pt" height="512.000000pt" viewBox="0 0 512.000000 512.000000"
 preserveAspectRatio="xMidYMid meet">

<g transform="translate(0.000000,512.000000) scale(0.100000,-0.100000)"
fill="#000000" stroke="none">
<path d="M1520 4796 c-101 -28 -183 -98 -228 -194 l-27 -57 0 -1985 0 -1985
33 -67 c46 -95 123 -157 227 -184 73 -20 1996 -20 2070 0 107 28 180 87 227
184 l33 67 0 1985 0 1985 -27 57 c-29 62 -97 136 -149 164 -86 44 -83 44
-1124 43 -759 -1 -1001 -4 -1035 -13z m2061 -97 c59 -21 126 -76 151 -127 19
-39 24 -66 26 -164 l4 -118 -1202 0 -1202 0 4 118 c2 98 7 125 26 164 24 49
91 106 147 126 44 15 2000 16 2046 1z m179 -2099 l0 -1590 -1200 0 -1200 0 0
1590 0 1590 1200 0 1200 0 0 -1590z m0 -1838 c0 -100 -4 -151 -16 -185 -18
-54 -73 -115 -129 -142 -39 -19 -67 -20 -1055 -20 -988 0 -1016 1 -1055 20
-56 27 -111 88 -129 142 -12 34 -16 85 -16 185 l0 138 1200 0 1200 0 0 -138z"/>
<path d="M2852 4547 c-30 -31 -28 -72 4 -104 20 -20 31 -24 57 -19 62 12 85
70 46 120 -27 34 -77 36 -107 3z"/>
<path d="M2086 4534 c-19 -18 -21 -55 -4 -72 9 -9 91 -12 309 -12 257 0 300 2
313 16 21 21 20 40 -4 64 -19 19 -33 20 -309 20 -250 0 -292 -2 -305 -16z"/>
<path d="M1643 3760 c-57 -34 -63 -59 -63 -260 0 -201 6 -226 63 -260 29 -18
51 -20 212 -20 279 0 285 6 285 284 0 164 -2 181 -21 213 -36 58 -57 63 -261
63 -164 0 -186 -2 -215 -20z m395 -249 c2 -113 -1 -168 -9 -177 -10 -12 -45
-14 -178 -12 l-166 3 -3 165 c-1 90 0 170 3 177 3 11 42 13 177 11 l173 -3 3
-164z"/>
<path d="M2348 3765 c-14 -8 -36 -30 -47 -49 -19 -31 -21 -48 -21 -212 0 -277
7 -284 280 -284 273 0 280 7 280 284 0 164 -2 181 -21 213 -36 58 -57 63 -261
63 -140 -1 -189 -4 -210 -15z m390 -254 c2 -112 -1 -168 -9 -177 -15 -19 -319
-20 -337 -2 -13 13 -18 329 -5 342 4 3 84 5 177 4 l171 -3 3 -164z"/>
<path d="M3048 3765 c-14 -8 -36 -30 -47 -49 -19 -31 -21 -48 -21 -212 0 -278
6 -284 285 -284 161 0 183 2 212 20 57 35 63 58 63 262 0 203 -7 231 -69 263
-42 21 -383 21 -423 0z m387 -265 l0 -175 -164 -3 c-112 -2 -168 1 -177 9 -11
9 -14 48 -14 174 0 89 3 165 7 169 4 3 84 5 177 4 l171 -3 0 -175z"/>
<path d="M1643 2960 c-57 -34 -63 -59 -63 -260 0 -201 6 -226 63 -260 29 -18
51 -20 212 -20 279 0 285 6 285 284 0 164 -2 181 -21 213 -36 58 -57 63 -261
63 -164 0 -186 -2 -215 -20z m395 -249 c2 -113 -1 -168 -9 -177 -10 -12 -45
-14 -178 -12 l-166 3 -3 165 c-1 90 0 170 3 177 3 11 42 13 177 11 l173 -3 3
-164z"/>
<path d="M2348 2965 c-14 -8 -36 -30 -47 -49 -19 -31 -21 -48 -21 -212 0 -277
7 -284 280 -284 273 0 280 7 280 284 0 164 -2 181 -21 213 -36 58 -57 63 -261
63 -140 -1 -189 -4 -210 -15z m390 -254 c2 -112 -1 -168 -9 -177 -15 -19 -319
-20 -337 -2 -13 13 -18 329 -5 342 4 3 84 5 177 4 l171 -3 3 -164z"/>
<path d="M3048 2965 c-14 -8 -36 -30 -47 -49 -19 -31 -21 -48 -21 -212 0 -278
6 -284 285 -284 161 0 183 2 212 20 57 35 63 58 63 262 0 203 -7 231 -69 263
-42 21 -383 21 -423 0z m387 -265 l0 -175 -164 -3 c-112 -2 -168 1 -177 9 -11
9 -14 48 -14 174 0 89 3 165 7 169 4 3 84 5 177 4 l171 -3 0 -175z"/>
<path d="M1643 2160 c-57 -34 -63 -59 -63 -260 0 -201 6 -226 63 -260 29 -18
51 -20 212 -20 279 0 285 6 285 284 0 164 -2 181 -21 213 -36 58 -57 63 -261
63 -164 0 -186 -2 -215 -20z m395 -249 c2 -113 -1 -168 -9 -177 -10 -12 -45
-14 -178 -12 l-166 3 -3 165 c-1 90 0 170 3 177 3 11 42 13 177 11 l173 -3 3
-164z"/>
<path d="M2342 2160 c-54 -33 -62 -67 -62 -262 0 -270 8 -278 280 -278 273 0
280 7 280 284 0 164 -2 181 -21 213 -36 58 -57 63 -261 63 -166 0 -186 -2
-216 -20z m396 -249 c2 -112 -1 -168 -9 -177 -15 -19 -319 -20 -337 -2 -13 13
-18 329 -5 342 4 3 84 5 177 4 l171 -3 3 -164z"/>
<path d="M3042 2160 c-54 -33 -62 -67 -62 -262 0 -270 8 -278 278 -278 278 0
282 4 282 280 0 166 -2 188 -20 217 -35 57 -58 63 -262 63 -166 0 -186 -2
-216 -20z m396 -254 c2 -129 -1 -171 -10 -178 -21 -13 -322 -10 -336 4 -13 13
-18 301 -6 332 6 14 28 16 178 14 l171 -3 3 -169z"/>
<path d="M2524 751 c-30 -13 -64 -59 -64 -88 0 -32 26 -80 49 -93 25 -13 77
-13 102 0 24 13 49 61 49 94 0 56 -83 109 -136 87z"/>
</g>
</svg>
