<?xml version="1.0" standalone="no"?>
<!DOCTYPE svg PUBLIC "-//W3C//DTD SVG 20010904//EN"
 "http://www.w3.org/TR/2001/REC-SVG-20010904/DTD/svg10.dtd">
<svg version="1.0" xmlns="http://www.w3.org/2000/svg"
 width="980.000000pt" height="979.000000pt" viewBox="0 0 980.000000 979.000000"
 preserveAspectRatio="xMidYMid meet">

<g transform="translate(0.000000,979.000000) scale(0.100000,-0.100000)"
fill="#000000" stroke="none">
<path d="M870 9783 c-167 -26 -304 -77 -426 -159 -206 -136 -350 -340 -416
-586 l-23 -83 -3 -1485 c-2 -1072 0 -1507 8 -1565 58 -404 350 -724 756 -827
l89 -23 1550 0 1550 0 88 22 c292 75 530 262 661 521 42 83 83 219 96 317 8
66 10 491 8 1565 l-4 1475 -22 85 c-105 392 -423 680 -819 739 -68 10 -3030
14 -3093 4z m3097 -519 c132 -45 230 -134 291 -262 l37 -77 3 -1480 c2 -1463
2 -1481 -18 -1547 -40 -134 -154 -256 -287 -310 l-58 -23 -1500 -3 c-1047 -2
-1516 1 -1552 8 -199 42 -350 214 -374 426 -6 57 -9 606 -7 1494 l3 1405 22
59 c69 181 214 300 393 326 30 4 714 7 1520 6 l1465 -1 62 -21z"/>
<path d="M1600 8379 c-101 -45 -160 -138 -160 -249 1 -111 12 -126 313 -427
l272 -273 -277 -277 c-307 -308 -321 -328 -322 -439 0 -190 185 -319 370 -258
43 15 83 51 329 295 155 154 285 279 290 279 6 0 129 -120 275 -266 300 -301
317 -314 436 -314 114 0 190 48 247 154 31 59 30 173 -2 236 -15 29 -119 141
-294 318 l-272 272 267 268 c173 174 274 283 289 312 32 63 32 167 1 232 -67
137 -233 194 -373 129 -31 -15 -124 -101 -309 -286 l-265 -265 -275 274 c-241
239 -281 275 -324 290 -69 22 -160 20 -216 -5z"/>
<path d="M5807 9774 c-414 -75 -729 -393 -802 -809 -22 -129 -23 -2958 0
-3086 69 -397 354 -700 751 -801 l89 -23 1550 0 1550 0 88 22 c407 104 699
423 757 828 8 58 10 493 8 1565 l-3 1485 -23 83 c-93 348 -348 614 -680 711
-139 40 -163 41 -1709 40 -1239 -1 -1511 -3 -1576 -15z m3150 -510 c154 -53
275 -177 317 -325 15 -49 16 -207 14 -1540 l-3 -1484 -37 -78 c-43 -90 -123
-176 -204 -219 -113 -61 -29 -58 -1649 -58 -1620 0 -1536 -3 -1649 58 -81 43
-161 129 -204 219 l-37 78 -3 1484 c-2 1333 -1 1491 14 1540 50 178 209 315
394 341 30 4 714 7 1520 6 l1465 -1 62 -21z"/>
<path d="M6310 8235 c-63 -20 -124 -75 -157 -143 -23 -46 -28 -69 -27 -122 1
-36 9 -82 18 -103 22 -51 81 -114 130 -140 l41 -22 1080 0 c1217 0 1104 -7
1193 78 109 106 108 272 -2 383 -91 90 -5 84 -1190 83 -861 0 -1049 -3 -1086
-14z"/>
<path d="M6302 7227 c-48 -15 -127 -89 -153 -145 -17 -34 -23 -64 -23 -112 0
-113 53 -199 152 -247 l57 -28 1060 0 1060 0 50 23 c64 29 100 64 133 127 36
67 38 179 5 241 -34 65 -69 100 -125 128 l-52 26 -1065 -1 c-724 -1 -1077 -4
-1099 -12z"/>
<path d="M877 4739 c-380 -40 -716 -316 -830 -684 -48 -155 -48 -148 -45
-1725 l3 -1485 23 -83 c98 -368 379 -643 742 -729 70 -17 176 -18 1640 -18
1452 0 1570 1 1632 17 336 87 590 313 708 631 58 155 54 49 58 1657 2 1074 0
1499 -8 1565 -29 222 -135 431 -297 585 -165 157 -357 246 -583 270 -115 12
-2928 11 -3043 -1z m3116 -527 c133 -54 247 -176 287 -310 20 -66 20 -84 18
-1547 l-3 -1480 -37 -77 c-63 -133 -173 -228 -305 -264 -65 -18 -134 -19
-1553 -19 -1410 0 -1488 1 -1545 18 -155 47 -275 165 -329 320 l-21 62 -3
1410 c-2 952 0 1436 8 1490 26 197 164 359 351 409 46 13 268 15 1564 13
l1510 -2 58 -23z"/>
<path d="M2304 3621 c-58 -26 -106 -72 -134 -128 l-25 -48 -3 -397 -3 -397
-407 -3 c-454 -3 -441 -1 -518 -76 -54 -53 -78 -113 -78 -197 0 -111 51 -192
154 -246 45 -24 47 -24 447 -27 l402 -3 3 -402 c3 -451 0 -430 81 -515 104
-107 280 -107 384 0 81 85 78 64 81 515 l3 402 392 3 392 3 51 27 c96 51 148
136 148 243 0 83 -23 144 -76 197 -74 73 -68 72 -508 78 l-395 5 -5 395 c-5
388 -5 396 -28 442 -47 95 -135 148 -247 148 -47 0 -84 -7 -111 -19z"/>
<path d="M5867 4739 c-440 -46 -803 -400 -867 -844 -8 -58 -10 -492 -8 -1570
l4 -1490 21 -76 c94 -331 315 -577 621 -689 174 -63 93 -61 1792 -58 l1545 3
77 22 c368 105 623 361 720 725 l23 83 3 1485 c2 1072 0 1507 -8 1565 -65 452
-423 797 -880 845 -115 12 -2928 11 -3043 -1z m3068 -514 c137 -36 250 -131
313 -262 l37 -78 3 -1480 c3 -1655 8 -1547 -68 -1663 -66 -102 -160 -174 -275
-209 -57 -17 -135 -18 -1550 -18 -1415 0 -1493 1 -1550 18 -115 35 -209 107
-275 209 -76 116 -71 8 -68 1663 l3 1480 37 78 c62 129 176 225 309 261 84 23
2997 23 3084 1z"/>
<path d="M6302 2637 c-48 -15 -127 -89 -153 -144 -17 -34 -23 -66 -23 -113 -1
-124 78 -230 198 -265 46 -14 183 -15 1097 -13 l1044 3 51 27 c202 106 202
392 2 492 l-52 26 -1065 -1 c-724 -1 -1077 -4 -1099 -12z"/>
</g>
</svg>
