<?xml version="1.0" standalone="no"?>
<!DOCTYPE svg PUBLIC "-//W3C//DTD SVG 20010904//EN"
 "http://www.w3.org/TR/2001/REC-SVG-20010904/DTD/svg10.dtd">
<svg version="1.0" xmlns="http://www.w3.org/2000/svg"
 width="512.000000pt" height="512.000000pt" viewBox="0 0 512.000000 512.000000"
 preserveAspectRatio="xMidYMid meet">

<g transform="translate(0.000000,512.000000) scale(0.100000,-0.100000)"
fill="#000000" stroke="none">
<path d="M2380 5114 c-19 -2 -78 -9 -130 -14 -230 -25 -520 -106 -748 -208
-225 -101 -484 -273 -664 -441 -464 -431 -737 -957 -820 -1581 -16 -121 -16
-495 1 -620 59 -448 229 -873 488 -1215 55 -73 76 -93 108 -104 112 -38 224
63 194 174 -5 18 -35 69 -66 112 -242 337 -399 743 -429 1106 l-7 87 150 0
151 0 6 -67 c22 -209 88 -436 187 -639 106 -217 228 -384 410 -558 300 -287
670 -468 1084 -527 118 -17 416 -17 530 0 351 52 669 187 939 398 l70 54 103
-103 c57 -56 103 -106 103 -109 0 -11 -128 -111 -225 -176 -288 -192 -592
-309 -940 -360 -138 -20 -472 -23 -605 -4 -371 51 -721 188 -1014 398 -49 35
-106 68 -126 74 -80 24 -170 -35 -185 -120 -11 -69 19 -114 128 -192 346 -248
733 -399 1182 -461 118 -16 494 -16 615 0 539 72 1036 300 1412 651 341 316
569 667 708 1091 91 274 124 491 124 800 0 228 -9 329 -50 530 -141 689 -583
1304 -1204 1674 -289 173 -634 291 -980 336 -88 12 -438 21 -500 14z m390
-305 c988 -90 1809 -828 2004 -1801 104 -516 21 -1070 -228 -1523 -80 -147
-262 -405 -285 -405 -3 0 -53 46 -109 103 l-103 103 54 70 c171 218 300 486
361 749 39 167 50 270 50 465 0 196 -13 298 -59 481 -122 480 -441 910 -872
1178 -562 348 -1283 384 -1878 92 -139 -68 -297 -169 -320 -204 -55 -85 -8
-203 91 -225 53 -12 90 1 191 65 200 129 465 226 677 248 l66 7 0 -150 0 -151
-47 -6 c-76 -10 -228 -52 -311 -86 -227 -90 -435 -251 -583 -451 -401 -541
-345 -1291 131 -1768 214 -213 481 -345 780 -385 421 -57 838 84 1140 385 213
214 345 481 385 780 28 202 14 270 -65 310 -36 18 -58 20 -288 20 l-249 0 -12
53 c-17 74 -82 202 -141 274 -97 120 -250 219 -400 259 -91 25 -291 25 -380 1
-212 -58 -392 -206 -489 -402 -51 -102 -70 -176 -78 -295 -22 -363 223 -688
587 -781 78 -20 268 -17 350 4 35 10 75 28 88 40 76 71 67 183 -20 238 -29 18
-42 19 -103 13 -185 -19 -278 -6 -376 52 -258 154 -303 510 -91 718 213 210
563 164 716 -93 57 -97 67 -164 55 -373 -3 -56 -1 -71 17 -95 79 -106 246 -74
270 53 l6 34 154 0 154 0 -6 -32 c-23 -130 -86 -287 -159 -399 -68 -104 -231
-262 -333 -323 -267 -159 -580 -196 -872 -104 -161 51 -284 124 -407 242 -391
370 -442 964 -122 1397 92 124 244 252 384 322 144 71 355 114 517 103 324
-21 589 -161 790 -416 33 -41 73 -83 91 -92 67 -38 155 -13 198 54 15 25 19
45 16 85 -3 44 -11 62 -60 126 -203 270 -495 453 -826 519 l-111 21 0 150 0
149 58 -7 c179 -21 349 -73 527 -161 170 -85 295 -174 431 -309 450 -448 606
-1096 408 -1695 -139 -421 -448 -775 -849 -970 -387 -190 -834 -220 -1245 -84
-495 163 -891 559 -1054 1054 -156 472 -91 996 174 1409 67 105 80 141 68 195
-22 99 -140 146 -225 91 -32 -21 -133 -175 -193 -295 -97 -194 -168 -425 -191
-624 l-13 -106 -149 0 -150 0 7 83 c27 313 152 680 328 961 456 728 1274 1133
2128 1055z"/>
</g>
</svg>
