<?xml version="1.0" standalone="no"?>
<!DOCTYPE svg PUBLIC "-//W3C//DTD SVG 20010904//EN"
 "http://www.w3.org/TR/2001/REC-SVG-20010904/DTD/svg10.dtd">
<svg version="1.0" xmlns="http://www.w3.org/2000/svg"
 width="612.000000pt" height="361.000000pt" viewBox="0 0 612.000000 361.000000"
 preserveAspectRatio="xMidYMid meet">

<g transform="translate(0.000000,361.000000) scale(0.100000,-0.100000)"
fill="#000000" stroke="none">
<path d="M2710 2600 c0 -133 -4 -210 -10 -210 -5 0 -10 -13 -10 -30 0 -16 -5
-30 -11 -30 -21 0 -4 -45 19 -48 21 -3 22 -8 22 -83 0 -77 0 -79 -25 -79 l-25
0 -2 -255 -3 -255 -79 273 c-44 149 -81 274 -82 276 -5 6 -224 -21 -224 -28 0
-3 -9 -100 -20 -216 -11 -115 -20 -218 -20 -227 0 -15 -10 -18 -65 -18 l-65 0
0 36 c0 19 -5 44 -10 55 -13 23 -58 26 -66 4 -5 -11 -16 -14 -43 -10 l-36 4
38 -10 c33 -10 37 -14 37 -45 0 -19 -4 -34 -10 -34 -5 0 -10 -7 -10 -15 0 -11
-11 -15 -40 -15 -38 0 -40 -2 -40 -30 l0 -30 -145 0 c-90 0 -145 4 -146 10 0
6 0 39 0 75 0 36 0 70 0 75 1 6 13 10 27 10 21 0 25 4 22 23 -2 14 -11 23 -25
25 l-23 3 0 220 c0 188 -2 219 -15 219 -13 0 -15 -22 -15 -140 l0 -140 -75 0
c-68 0 -75 -2 -75 -20 0 -18 7 -20 75 -20 l75 0 0 -60 c0 -57 -1 -60 -25 -60
-20 0 -25 -5 -25 -25 0 -20 5 -25 25 -25 23 0 25 -3 25 -50 l0 -50 -87 -2 -88
-2 85 -5 85 -6 3 -77 3 -78 -126 0 c-118 0 -125 -1 -125 -20 0 -18 -7 -20 -55
-20 -54 0 -55 0 -55 29 0 16 -6 32 -12 34 -7 3 2 6 20 6 29 1 32 4 32 31 0 25
-4 30 -25 30 -14 0 -25 5 -25 10 0 14 -54 12 -68 -2 -9 -9 -15 -9 -24 0 -15
15 -65 16 -70 1 -2 -6 -56 -13 -138 -18 l-135 -6 90 -7 c68 -6 93 -12 102 -25
7 -9 10 -19 5 -22 -4 -3 -7 -17 -7 -31 l0 -25 -238 -3 c-173 -2 -237 -6 -237
-14 0 -7 16 -96 36 -200 l36 -188 2477 0 2476 0 110 191 c61 104 112 194 113
199 2 6 -79 10 -211 10 -119 0 -222 3 -231 6 -25 10 -19 21 16 28 45 9 58 24
58 67 0 41 -18 60 -70 74 -41 10 -70 28 -70 40 0 9 34 15 108 20 166 12 96 24
-138 23 -226 0 -307 -10 -176 -21 43 -4 100 -7 125 -8 25 0 40 -3 33 -6 -6 -2
-10 -9 -6 -14 3 -5 -2 -9 -10 -9 -9 0 -16 -6 -16 -12 0 -10 -22 -12 -82 -11
-46 1 -95 2 -110 3 -20 0 -27 6 -30 23 -4 31 -63 38 -73 8 -3 -12 -3 -30 0
-41 5 -17 15 -20 61 -20 30 0 54 -4 54 -10 0 -5 18 -10 39 -10 50 0 71 -8 71
-27 0 -26 29 -44 70 -45 47 0 113 -21 118 -37 2 -7 -16 -11 -51 -11 -45 0 -56
4 -60 18 -4 15 -5 15 -6 0 -2 -29 -86 -31 -838 -20 -61 1 -63 2 -63 26 0 30 5
31 71 10 58 -19 114 -12 129 16 28 52 -4 104 -69 116 -20 4 -44 16 -54 28
l-19 21 114 9 c170 13 107 25 -137 25 -233 0 -311 -12 -150 -23 152 -11 140
-7 118 -33 -17 -20 -30 -22 -123 -24 l-104 -2 -9 27 c-8 23 -14 27 -41 24 -28
-3 -31 -6 -31 -38 l0 -35 58 -3 c31 -2 57 -7 57 -12 0 -6 18 -10 39 -10 51 0
71 -8 71 -29 0 -24 20 -41 47 -41 18 0 23 -6 23 -24 0 -32 -29 -36 -282 -36
l-208 0 0 70 0 70 -180 0 -180 0 0 115 0 115 -75 0 -75 0 0 50 0 50 -55 0 -55
0 0 105 c0 98 -1 105 -20 105 -14 0 -21 9 -26 35 -3 20 -16 42 -28 50 -11 9
-21 21 -21 28 0 6 -15 13 -32 15 -36 4 -35 6 -37 -75 -1 -31 3 -38 24 -44 17
-5 7 -7 -29 -6 l-54 2 -22 75 -22 75 71 5 c64 5 71 7 74 28 3 20 -1 22 -37 22
-39 0 -41 2 -41 30 0 17 5 30 10 30 6 0 10 25 10 55 l0 55 -60 0 -60 0 0 -55
c0 -39 4 -55 13 -55 9 0 12 -10 9 -30 -4 -27 -8 -30 -38 -30 -31 0 -34 3 -34
30 0 28 -3 30 -35 30 l-35 0 0 210 c0 180 -2 210 -15 210 -13 0 -15 -30 -15
-210z"/>
</g>
</svg>
